<svg width="21" height="20" viewBox="0 0 21 20" fill="none" xmlns="http://www.w3.org/2000/svg">
<path id="&#195;&#141;cone - Telefone" d="M12.8967 18.295C13.7476 18.8448 14.7615 19.0844 15.7681 18.9735C16.7746 18.8626 17.7123 18.408 18.4236 17.6861L19.0454 17.0772C19.318 16.798 19.4706 16.423 19.4706 16.0324C19.4706 15.6419 19.318 15.2669 19.0454 14.9876L16.4063 12.3721C16.1298 12.1 15.7576 11.9475 15.37 11.9475C14.9823 11.9475 14.6102 12.1 14.3337 12.3721C14.0548 12.6452 13.6804 12.798 13.2905 12.798C12.9005 12.798 12.5261 12.6452 12.2473 12.3721L8.10208 8.22059C7.9638 8.08411 7.85399 7.92145 7.77904 7.74209C7.70409 7.56272 7.66549 7.37022 7.66549 7.17578C7.66549 6.98134 7.70409 6.78884 7.77904 6.60947C7.85399 6.4301 7.9638 6.26745 8.10208 6.13097C8.3738 5.85406 8.52606 5.48134 8.52606 5.09308C8.52606 4.70483 8.3738 4.33211 8.10208 4.05519L5.4768 1.42588C5.19798 1.15286 4.82353 1 4.4336 1C4.04366 1 3.66921 1.15286 3.39039 1.42588L2.78243 2.04861C2.06165 2.76094 1.60773 3.7001 1.49702 4.70819C1.3863 5.71628 1.62552 6.7318 2.17447 7.58402C5.03471 11.8058 8.67403 15.4413 12.8967 18.295Z" stroke="white" stroke-width="1.3" stroke-linecap="round" stroke-linejoin="round"/>
</svg>
