<svg width="19" height="22" viewBox="0 0 19 22" fill="none" xmlns="http://www.w3.org/2000/svg">
<path id="&#195;&#141;cone - Redes Sociais" d="M12.2814 5.70456L6.65979 9.31706M6.65979 12.6591L12.2814 16.2716M7.1524 10.9881C7.1524 12.6951 5.76855 14.079 4.06149 14.079C2.35443 14.079 0.970581 12.6951 0.970581 10.9881C0.970581 9.28102 2.35443 7.89717 4.06149 7.89717C5.76855 7.89717 7.1524 9.28102 7.1524 10.9881ZM17.9706 17.9426C17.9706 19.6497 16.5867 21.0335 14.8797 21.0335C13.1726 21.0335 11.7888 19.6497 11.7888 17.9426C11.7888 16.2356 13.1726 14.8517 14.8797 14.8517C16.5867 14.8517 17.9706 16.2356 17.9706 17.9426ZM17.9706 4.03354C17.9706 5.7406 16.5867 7.12445 14.8797 7.12445C13.1726 7.12445 11.7888 5.7406 11.7888 4.03354C11.7888 2.32647 13.1726 0.942627 14.8797 0.942627C16.5867 0.942627 17.9706 2.32647 17.9706 4.03354Z" stroke="white" stroke-width="1.15909" stroke-linecap="round" stroke-linejoin="round"/>
</svg>
