<svg width="17" height="22" viewBox="0 0 17 22" fill="none" xmlns="http://www.w3.org/2000/svg">
<path id="&#195;&#141;cone - Livro" d="M0.970581 1.4472V16.4472C0.971421 16.7242 1.04895 16.9956 1.19457 17.2312C1.34019 17.4668 1.54821 17.6576 1.79558 17.7822L7.79558 20.7822C8.02393 20.8973 8.27789 20.9521 8.53337 20.9414C8.78884 20.9306 9.03734 20.8548 9.25526 20.7211C9.47318 20.5873 9.65329 20.4001 9.77849 20.1771C9.90368 19.9542 9.96981 19.7029 9.97058 19.4472V6.8772C9.97253 6.59766 9.89631 6.32313 9.75054 6.08459C9.60477 5.84605 9.39523 5.653 9.14558 5.5272L0.970581 1.4472ZM0.970581 1.4472H14.4706C14.8684 1.4472 15.2499 1.60524 15.5312 1.88654C15.8125 2.16785 15.9706 2.54938 15.9706 2.9472V16.4472C15.9706 16.845 15.8125 17.2266 15.5312 17.5079C15.2499 17.7892 14.8684 17.9472 14.4706 17.9472H9.97058" stroke="white" stroke-width="1.3" stroke-linecap="round" stroke-linejoin="round"/>
</svg>
