<svg width="21" height="19" viewBox="0 0 21 19" fill="none" xmlns="http://www.w3.org/2000/svg">
<path id="&#195;&#141;cone - Cora&#195;&#167;&#195;&#163;o" d="M8.68424 1.72008L8.68421 1.72005C7.83848 1.07242 6.89116 0.75 5.84992 0.75C4.43705 0.75 3.14956 1.30744 2.21006 2.31634L8.68424 1.72008ZM8.68424 1.72008C9.70727 2.50339 11.2336 2.50367 12.2568 1.72009C13.1027 1.07241 14.05 0.75 15.0913 0.75C16.5041 0.75 17.7915 1.30745 18.731 2.31641C19.6617 3.31598 20.1912 4.70002 20.1912 6.23122C20.1912 7.76724 19.6233 9.20786 18.2892 10.8016L18.2892 10.8016C17.0725 12.2553 15.3083 13.747 13.1818 15.5413L13.1818 15.5413L13.1631 15.5571C12.4473 16.1611 11.6336 16.8479 10.7889 17.5793L10.7885 17.5797C10.7021 17.6545 10.5893 17.6972 10.4706 17.6972C10.3519 17.6972 10.2392 17.6547 10.1524 17.5794L10.1519 17.579C9.301 16.8423 8.48194 16.1511 7.76256 15.544L7.75988 15.5418L7.75984 15.5418M8.68424 1.72008L7.75984 15.5418M7.75984 15.5418C5.63303 13.7472 3.86885 12.2553 2.65211 10.8017C1.31804 9.20781 0.75 7.76719 0.75 6.23138C0.75 4.70003 1.27948 3.31598 2.20999 2.31641L7.75984 15.5418Z" stroke="white" stroke-width="1.5"/>
</svg>
