<svg width="19" height="19" viewBox="0 0 19 19" fill="none" xmlns="http://www.w3.org/2000/svg">
<path id="&#195;&#141;cone - Pr&#195;&#169;dio" d="M2.27842 11.4042V17.2888C2.27842 17.4622 2.3473 17.6285 2.46992 17.7511C2.59254 17.8737 2.75885 17.9426 2.93226 17.9426H16.0091C16.1825 17.9426 16.3488 17.8737 16.4715 17.7511C16.5941 17.6285 16.663 17.4622 16.663 17.2888V11.4042M0.970581 4.86575V7.48112C0.970581 7.65453 1.03947 7.82084 1.16209 7.94346C1.28471 8.06608 1.45101 8.13497 1.62442 8.13497H17.3167C17.4901 8.13497 17.6564 8.06608 17.779 7.94346C17.9016 7.82084 17.9705 7.65453 17.9705 7.48112V4.86575M0.970581 4.86575L2.56596 1.66192C2.67562 1.44427 2.84393 1.2616 3.05188 1.13452C3.25984 1.00743 3.49917 0.940993 3.74288 0.942689H15.1982C15.4419 0.940993 15.6813 1.00743 15.8892 1.13452C16.0972 1.2616 16.2655 1.44427 16.3751 1.66192L17.9705 4.86575M0.970581 4.86575H17.9705M10.7784 11.4042V17.9426M2.27842 13.3657H10.7784" stroke="white" stroke-width="1.3" stroke-linecap="round" stroke-linejoin="round"/>
</svg>
