<svg width="143" height="71" viewBox="0 0 143 71" fill="none" xmlns="http://www.w3.org/2000/svg">
<g id="Logo - Desjoyaux">
<g id="Group">
<g id="Group_2">
<g id="Group_3">
<path id="Vector" d="M143 42.4568H0V58.8327H143V42.4568Z" fill="#005597"/>
<path id="Vector_2" d="M143 5.27002H0V42.6085H143V5.27002Z" fill="#0090D2"/>
<path id="Vector_3" d="M65.5196 11.2214C64.9897 8.49211 65.9738 7.69606 64.0056 4.13279C62.9079 2.12371 67.7906 -1.32583 68.964 0.531613C70.5159 3.1093 70.9701 5.61117 71.0079 8.68164C71.0458 11.2593 65.8602 13.1547 65.5196 11.2214ZM61.5831 28.8482C60.9396 44.5418 55.9055 63.6469 48.6382 68.1958C39.9325 73.6544 31.8703 70.8114 31.9082 62.396C31.946 57.9609 34.5956 55.6106 36.7152 51.6304C38.0778 49.0906 40.3867 52.3127 38.6456 55.7244C35.8446 61.1451 34.0656 63.9123 39.9325 65.3148C45.8751 66.7174 50.3036 61.4104 52.3097 55.042C56.5868 41.6229 56.3597 33.2833 56.549 19.5989C56.5868 16.1114 60.864 13.1168 62.378 16.0356C64.6112 20.357 66.3523 18.9166 66.3145 21.4563C66.3145 27.1424 61.8481 21.9112 61.5831 28.8482Z" fill="#FFDF00"/>
<g id="Group_4">
<path id="Vector_4" fill-rule="evenodd" clip-rule="evenodd" d="M64.0812 64.9356V62.0168H64.7626C65.7467 62.0168 66.1252 62.3958 66.1252 63.4193C66.1252 64.5565 65.7845 64.9356 64.7626 64.9356H64.0812ZM61.9995 68.4231H64.8761V68.044H64.8004C64.1191 68.044 64.0434 67.9303 64.0434 67.1342V65.3905H65.1032C66.163 65.3905 66.5037 65.3147 66.8443 65.0872C67.2607 64.784 67.45 64.2912 67.45 63.5331C67.45 62.1305 66.92 61.6377 65.4817 61.6377H61.9995V62.0168C62.3401 62.0168 62.5294 62.0547 62.6051 62.1684C62.7186 62.2821 62.7186 62.4337 62.7186 62.9644V67.1342C62.7186 67.9303 62.6808 68.0061 62.3023 68.044C62.1887 68.0819 62.1509 68.0819 61.9995 68.0819V68.4231Z" fill="#005A9B"/>
<path id="Vector_5" fill-rule="evenodd" clip-rule="evenodd" d="M72.6355 61.5999H75.3986V61.9789H75.3608C74.793 61.9789 74.7173 62.0547 74.7173 62.9266V67.1343C74.7173 67.9682 74.793 68.082 75.3608 68.082H75.3986V68.461H72.6355V68.082H72.6734C73.279 68.082 73.3547 68.0062 73.3547 67.1343V62.9266C73.3547 62.0547 73.279 61.9789 72.6734 61.9789H72.6355V61.5999Z" fill="#005A9B"/>
<path id="Vector_6" fill-rule="evenodd" clip-rule="evenodd" d="M81.2655 66.2624V66.3003C81.2655 67.0206 81.3412 67.3997 81.6061 67.7029C81.8332 67.9683 82.2118 68.1199 82.7038 68.1199C83.5744 68.1199 84.1043 67.6271 84.1043 66.869C84.1043 66.5278 84.0286 66.2624 83.8015 66.035C83.6122 65.8834 83.3851 65.7696 82.8174 65.5801C81.9089 65.2769 81.7954 65.239 81.4926 65.0494C80.9248 64.7462 80.5842 64.1396 80.5842 63.4194C80.5842 62.2064 81.4547 61.4482 82.9309 61.4482C83.6122 61.4482 84.3314 61.5999 84.937 61.8652V63.4952H84.3314V63.4573C84.3314 62.9266 84.2557 62.5855 84.1043 62.358C83.8772 62.0927 83.423 61.9031 82.9688 61.9031C82.1739 61.9031 81.7197 62.2822 81.7197 62.9645C81.7197 63.4952 81.9846 63.7985 82.7038 64.0259C83.5365 64.3292 83.7258 64.3671 84.1043 64.5566C84.937 64.9357 85.3155 65.5043 85.3155 66.3762C85.3155 67.7029 84.3692 68.5748 82.8931 68.5748C82.401 68.5748 81.7954 68.4611 81.2655 68.2715C81.0762 68.2336 80.9627 68.1578 80.6977 68.0441V66.2624H81.2655Z" fill="#005A9B"/>
<path id="Vector_7" fill-rule="evenodd" clip-rule="evenodd" d="M92.9992 68.6127C92.0529 68.6127 91.2959 68.3473 90.8417 67.8924C90.3875 67.3997 90.1982 66.5657 90.1982 64.822C90.1982 63.4194 90.3875 62.5855 90.8417 62.1306C91.2581 61.7136 92.0908 61.4482 93.037 61.4482C93.8319 61.4482 94.6268 61.5999 95.1945 61.9031V63.4573H94.6268V63.4194C94.6268 62.358 94.1347 61.8273 93.1884 61.8273C92.6585 61.8273 92.2043 62.0168 91.9394 62.358C91.788 62.5855 91.6744 62.8508 91.6366 63.1162C91.5987 63.4194 91.5609 64.0638 91.523 64.9357C91.523 65.0494 91.523 65.1631 91.523 65.2769C91.523 66.6794 91.6744 67.3617 92.0529 67.7787C92.3179 68.0441 92.7721 68.2336 93.2263 68.2336C93.6427 68.2336 94.0212 68.082 94.2483 67.8166C94.5132 67.5134 94.6268 67.1343 94.6268 66.3762H95.2324V68.1578C94.6646 68.4231 93.7562 68.6127 92.9992 68.6127Z" fill="#005A9B"/>
<path id="Vector_8" fill-rule="evenodd" clip-rule="evenodd" d="M100.342 61.5999H103.105V61.9789H103.067C102.5 61.9789 102.424 62.0547 102.424 62.9266V67.1343C102.424 67.9682 102.5 68.082 103.067 68.082H103.105V68.461H100.342V68.082H100.38C100.986 68.082 101.061 68.0062 101.061 67.1343V62.9266C101.061 62.0547 100.986 61.9789 100.38 61.9789H100.342V61.5999Z" fill="#005A9B"/>
<path id="Vector_9" fill-rule="evenodd" clip-rule="evenodd" d="M108.404 68.0821H108.48C109.048 68.0821 109.161 68.0063 109.161 67.5514V67.0965V62.8509C109.161 62.4718 109.161 62.3202 109.048 62.2444C108.972 62.0928 108.745 62.0549 108.404 62.0549V61.6758H110.259L113.704 67.1344V63.1163C113.704 62.1307 113.666 62.0928 112.984 62.0549H112.947V61.6758H114.953V62.0549H114.915C114.233 62.0549 114.196 62.0928 114.196 63.1163V68.4991H112.947L109.616 63.3058V67.0965V67.5135C109.616 68.0063 109.691 68.0442 110.373 68.0821H110.411V68.4612H108.367V68.0821H108.404Z" fill="#005A9B"/>
<path id="Vector_10" fill-rule="evenodd" clip-rule="evenodd" d="M130.85 66.2624V66.3003C130.85 67.0206 130.926 67.3997 131.191 67.7029C131.418 67.9683 131.796 68.1199 132.288 68.1199C133.159 68.1199 133.689 67.6271 133.689 66.869C133.689 66.5278 133.575 66.2624 133.386 66.035C133.197 65.8834 132.97 65.7696 132.402 65.5801C131.493 65.2769 131.38 65.239 131.077 65.0494C130.509 64.7462 130.169 64.1396 130.169 63.4194C130.169 62.2064 131.039 61.4482 132.515 61.4482C133.197 61.4482 133.916 61.5999 134.521 61.8652V63.4952H133.916V63.4573C133.916 62.9266 133.84 62.5855 133.689 62.358C133.462 62.0927 133.007 61.9031 132.553 61.9031C131.758 61.9031 131.304 62.2822 131.304 62.9645C131.304 63.4952 131.569 63.7985 132.288 64.0259C133.121 64.3292 133.31 64.3671 133.689 64.5566C134.521 64.9357 134.9 65.5043 134.9 66.3762C134.9 67.7029 133.954 68.5748 132.477 68.5748C131.985 68.5748 131.38 68.4611 130.85 68.2715C130.661 68.2336 130.547 68.1578 130.282 68.0441V66.2624H130.85Z" fill="#005A9B"/>
</g>
<path id="Vector_11" fill-rule="evenodd" clip-rule="evenodd" d="M81.1141 41.6609H87.208L83.9529 46.5509V47.1195L81.1141 41.6609Z" fill="#0090D3"/>
<path id="Vector_12" d="M98.7525 42.1917H97.5413V43.1772H98.7525V42.1917Z" fill="#005497"/>
<path id="Vector_13" d="M13.3234 46.3233V33.9277L13.5884 33.8519L13.8155 33.814C14.1183 33.7761 14.4211 33.7382 14.7239 33.7382C18.8496 33.6245 21.3099 36.0505 21.2342 40.1824C21.1207 44.6554 18.2062 47.0057 13.7776 46.3991L13.4748 46.3612L13.3234 46.3233ZM8.10004 48.901H16.1244C21.1207 48.901 24.4137 46.1717 25.1329 41.7745C26.0791 36.2021 23.2025 32.2598 17.7898 31.5017C17.2978 31.4258 16.7679 31.3879 16.2379 31.3879H8.28929C8.40284 31.5017 8.44069 31.5396 8.51639 31.6533C9.12201 32.3356 9.34911 32.8663 9.42481 33.6245C9.42481 33.7382 9.42481 33.8519 9.42481 33.9277L9.38696 46.2854C9.38696 46.3991 9.38696 46.475 9.38696 46.5887C9.27341 47.4226 9.00845 47.9533 8.32714 48.5599C8.28929 48.7494 8.17574 48.8252 8.10004 48.901Z" fill="white"/>
<path id="Vector_14" d="M30.9997 40.3719C31.0376 40.1824 31.1133 39.9549 31.1511 39.7654C31.7946 37.7184 34.0657 36.9603 35.6175 38.2112C36.261 38.7419 36.6395 39.5379 36.6395 40.3719H30.9997ZM40.3867 42.6463C40.3867 42.4568 40.3867 42.2673 40.3867 42.0777C40.2732 37.491 37.3208 34.9512 32.6652 35.7851C29.9778 36.24 28.0095 38.0596 27.3661 40.6752C27.139 41.5091 27.1011 42.381 27.2525 43.2149C27.8203 46.7403 30.5455 48.901 34.9741 48.901C35.9203 48.901 36.9045 48.7873 37.9264 48.5219L38.1535 48.484L38.3806 48.4082L40.3489 45.1482C39.8568 45.4515 39.4405 45.641 38.9105 45.8684C37.5479 46.3612 36.4124 46.5887 35.5797 46.5887C33.5357 46.5508 32.1353 45.6789 31.3783 44.0489C31.189 43.6319 31.0376 43.177 30.9997 42.7221H40.3867V42.6463Z" fill="white"/>
<path id="Vector_15" d="M41.7494 45.1861L42.0522 45.3378C42.6956 45.7927 43.1877 45.9822 43.7176 46.1717C45.3073 46.7403 46.5185 46.892 47.2377 46.8161C48.6003 46.6645 49.0924 46.1717 49.1681 45.4894C49.2059 44.845 48.7517 44.3522 47.3891 43.8973L46.3293 43.5182L45.3073 43.1771L45.0045 43.0633C44.4368 42.8359 43.9068 42.5326 43.4148 42.0778C41.6737 40.5615 41.9765 37.7943 44.3232 36.5812C45.6858 35.861 47.5784 35.6335 50.2658 36.1263L50.7957 36.2401L50.9471 36.278V38.8177C50.7957 38.7419 50.6821 38.704 50.5686 38.6282C49.3952 38.0596 48.4489 37.7943 47.5405 37.8701C47.0863 37.8701 46.7835 37.908 46.4428 38.0217C45.7237 38.2491 45.4587 38.9694 45.8372 39.538C46.0265 39.8033 46.2536 39.9929 46.7456 40.2203C46.8971 40.2961 47.0485 40.334 47.1999 40.3719L47.7676 40.5615L48.1461 40.6752L49.3952 41.0543L49.8873 41.2059C50.2658 41.3575 50.6443 41.5091 51.0228 41.7745C52.991 43.0633 53.256 45.8306 51.1742 47.688C50.0008 48.7494 48.4489 49.1285 45.7615 48.8631C45.5344 48.8252 45.2695 48.7873 45.0424 48.7494L43.5283 48.4461L43.4148 48.4082L42.9606 48.3324L41.6358 44.9966L41.7494 45.1861Z" fill="white"/>
<path id="Vector_16" d="M65.5953 42.2673C65.5574 42.0399 65.5574 41.8125 65.5953 41.6229C65.7467 39.0452 67.3743 37.6048 69.3804 37.7564C70.7808 37.8701 71.8407 38.5903 72.522 40.2204C72.7491 40.789 72.9005 41.4713 72.9005 42.2673C73.014 45.679 70.9322 47.3848 68.5098 46.6646C66.9201 46.2097 65.671 44.5797 65.5953 42.2673ZM61.9238 42.2673C61.9238 42.7601 61.9616 43.2529 62.0752 43.7078C62.8322 47.4606 66.0873 49.6213 70.5537 48.9011C71.2729 48.7874 71.9164 48.5599 72.522 48.2946C75.1715 47.0436 76.5341 44.8071 76.5341 42.2294C76.572 38.0217 73.0519 34.9892 68.0934 35.6715C65.6331 36.0127 63.7028 37.3773 62.6808 39.3485C62.1887 40.2583 61.9616 41.2818 61.9238 42.2673Z" fill="white"/>
<path id="Vector_17" d="M78.0482 51.8957C78.351 52.1989 78.6916 52.3506 79.1458 52.4264C80.13 52.578 80.8491 52.1989 81.4926 50.948C81.6061 50.7585 81.644 50.5689 81.7575 50.3794L82.4767 48.5978L82.2496 48.105L82.0225 47.6122L81.4926 46.3613L78.3131 39.2726C77.4047 37.2256 77.1398 36.8466 76.0421 36.2401C76.9505 36.3917 77.8968 36.3917 78.843 36.2022C79.5244 36.0884 80.1678 35.8989 80.7734 35.6335L84.4071 44.2764L86.7538 38.5903C87.2459 37.3394 87.208 36.9982 86.6403 36.3917L86.451 36.1642L86.4132 36.1263H91.2202L84.2557 51.0996C82.8931 54.0185 81.2655 55.042 77.9346 54.8904C77.1776 54.8524 76.4206 54.7387 75.6636 54.4734L78.0482 51.8957Z" fill="white"/>
<path id="Vector_18" d="M94.1726 36.2021C94.816 36.0505 95.4595 35.9747 96.1029 35.9368C100.38 35.6715 101.781 36.9224 101.781 39.8791V44.428C101.781 46.0201 102.197 46.4371 103.749 46.3992C103.862 46.3992 103.976 46.3613 104.089 46.3613L102.424 48.6736C101.894 48.8252 101.364 48.8631 100.834 48.7873C99.5852 48.6357 98.7903 48.0671 98.4118 47.1952C98.2226 46.7782 98.1847 46.5129 98.1847 45.3757V42.381L97.8819 42.4947L97.6548 42.5705L97.617 42.6084L96.7086 42.8359C96.595 42.8738 96.4815 42.9117 96.3301 42.9496C94.3618 43.5182 93.7941 44.1626 94.0212 45.224C94.2483 46.2854 95.4595 47.0057 97.617 46.475C97.7305 46.4371 97.8819 46.3992 97.9955 46.3613L96.4436 48.6357C96.2165 48.7115 95.9515 48.7873 95.6866 48.8252C93.7562 49.1285 92.0908 48.4461 91.2202 47.2331C89.5548 44.8829 90.501 42.4947 93.6048 41.547C93.9076 41.4333 94.2483 41.3954 94.5889 41.3196L94.7025 41.2817L96.1029 40.9784L96.4058 40.9026L97.1249 40.751C97.9955 40.5236 98.374 39.917 98.109 39.1589C97.9576 38.704 97.5413 38.4387 96.6329 38.3249C96.1408 38.2491 95.3838 38.287 94.324 38.5524C93.6048 38.704 92.8478 38.9694 92.1286 39.3105L94.1726 36.2021Z" fill="white"/>
<path id="Vector_19" d="M107.08 36.4296C107.799 36.3159 108.48 36.1264 109.161 35.8989V44.428C109.161 46.3992 110.221 47.309 112.682 46.8162C113.893 46.5508 114.385 45.8306 114.385 44.1627V39.0831C114.385 37.6427 114.12 37.0361 113.325 36.5054C113.779 36.5433 114.158 36.5433 114.612 36.5433C115.71 36.5054 116.845 36.3159 117.905 35.8989V46.3613V46.7783L117.943 47.0057C117.981 47.6122 118.17 48.105 118.662 48.5599C118.776 48.6736 118.889 48.7494 118.965 48.8252H114.309V47.5743C113.893 48.1429 113.325 48.5978 112.265 48.9769C111.622 49.2043 110.865 49.318 109.994 49.2801C109.691 49.2801 109.426 49.2422 109.124 49.1664C106.625 48.7115 105.528 47.3469 105.528 44.8829V39.4622C105.528 37.5289 105.339 37.074 104.43 36.4675C105.376 36.6192 106.247 36.5813 107.08 36.4296Z" fill="white"/>
<path id="Vector_20" d="M125.702 42.6084L122.636 38.4007C122.182 37.8321 121.69 37.3014 121.122 36.8465C120.971 36.7328 120.782 36.6191 120.63 36.5054H125.74L128.087 39.8791L129.412 38.287C129.449 38.2491 129.487 38.1733 129.525 38.1354C130.017 37.4151 130.017 37.1498 129.601 36.7328L129.449 36.5812L129.412 36.5433H134.521L129.639 42.0777L133.007 46.7403C133.878 47.9154 134.37 48.4082 135.278 48.901H130.169L127.292 44.807L125.324 47.0815C124.605 47.9154 124.605 48.4082 125.134 48.7873L125.248 48.8252L125.286 48.8631H120.214L125.702 42.6084Z" fill="white"/>
</g>
</g>
</g>
<path id="Vector_21" fill-rule="evenodd" clip-rule="evenodd" d="M118.662 68.0821H118.851C119.04 68.0821 119.154 68.0442 119.23 67.9684C119.268 67.9305 119.305 67.8926 119.381 67.8168C119.495 67.6273 119.495 67.6273 119.646 67.1724L121.122 62.7752C121.198 62.5098 121.274 62.2445 121.274 62.2065C121.274 62.0549 121.198 62.017 120.895 62.017H120.517V61.6379H122.75L124.567 66.7933C124.718 67.2103 124.907 67.6273 125.021 67.8547C125.097 68.0063 125.286 68.0821 125.437 68.0821H125.664V68.4612H122.863V68.0821H123.091C123.318 68.0821 123.431 68.0063 123.431 67.8926C123.431 67.8547 123.431 67.7789 123.393 67.7031L123.355 67.5514L122.939 66.2626C122.863 66.0352 122.826 65.9973 122.447 65.9973H120.895C120.668 65.9973 120.63 65.9973 120.592 66.0352C120.517 66.0731 120.517 66.111 120.441 66.3763L120.1 67.4756C120.062 67.6273 120.025 67.7789 120.025 67.8926C120.025 68.0821 120.138 68.158 120.403 68.158H120.592V68.537H118.7V68.0821H118.662ZM121.009 65.277C121.009 65.3528 120.971 65.3907 120.971 65.4286C120.971 65.4666 120.971 65.4666 121.009 65.5045C121.009 65.5045 121.047 65.5424 121.122 65.5424H121.236H122.598H122.75C122.826 65.5424 122.863 65.5045 122.863 65.4286C122.863 65.3907 122.863 65.3528 122.826 65.277L121.917 62.5098L121.009 65.277Z" fill="#005A9B"/>
</g>
</svg>
