<svg width="111" height="55" viewBox="0 0 111 55" fill="none" xmlns="http://www.w3.org/2000/svg">
<g id="Logo - Desjoyaux">
<g id="Logo - Desjoyaux_2">
<g id="Group">
<g id="Group_2">
<g id="Group_3">
<path id="Vector" d="M110.615 32.8497H0.615383V45.4466H110.615V32.8497Z" fill="#005597"/>
<path id="Vector_2" d="M110.615 4.24444H0.615383V32.9664H110.615V4.24444Z" fill="#0090D2"/>
<path id="Vector_3" d="M51.0151 8.82245C50.6074 6.72298 51.3645 6.11064 49.8504 3.36966C49.0061 1.82422 52.762 -0.829277 53.6646 0.599529C54.8584 2.58236 55.2078 4.50688 55.2369 6.86878C55.266 8.85161 51.2771 10.3096 51.0151 8.82245ZM47.987 22.3815C47.492 34.4535 43.6196 49.1498 38.0294 52.6489C31.3327 56.8478 25.131 54.6609 25.1601 48.1875C25.1892 44.7759 27.2273 42.968 28.8578 39.9063C29.906 37.9526 31.6821 40.4311 30.3427 43.0555C28.1882 47.2253 26.8197 49.3539 31.3327 50.4328C35.9039 51.5117 39.3105 47.4294 40.8536 42.5306C44.1437 32.2082 43.969 25.7932 44.1146 15.2667C44.1437 12.584 47.4338 10.2804 48.5984 12.5257C50.3163 15.8498 51.6556 14.7418 51.6265 16.6955C51.6265 21.0694 48.1908 17.0454 47.987 22.3815Z" fill="#FFDF00"/>
<g id="Group_4">
<path id="Vector_4" fill-rule="evenodd" clip-rule="evenodd" d="M49.9087 50.1412V47.8959H50.4328C51.1898 47.8959 51.4809 48.1875 51.4809 48.9748C51.4809 49.8496 51.2189 50.1412 50.4328 50.1412H49.9087ZM48.3073 52.8239H50.5201V52.5323H50.4619C49.9378 52.5323 49.8795 52.4448 49.8795 51.8324V50.4911H50.6948C51.51 50.4911 51.7721 50.4328 52.0341 50.2578C52.3544 50.0246 52.5 49.6455 52.5 49.0623C52.5 47.9834 52.0924 47.6043 50.986 47.6043H48.3073V47.8959C48.5693 47.8959 48.7149 47.9251 48.7731 48.0126C48.8605 48.1 48.8605 48.2167 48.8605 48.6249V51.8324C48.8605 52.4448 48.8314 52.5031 48.5402 52.5323C48.4529 52.5614 48.4238 52.5614 48.3073 52.5614V52.8239Z" fill="white"/>
<path id="Vector_5" fill-rule="evenodd" clip-rule="evenodd" d="M56.4889 47.5752H58.6143V47.8668H58.5852C58.1485 47.8668 58.0902 47.9251 58.0902 48.5958V51.8324C58.0902 52.4739 58.1485 52.5614 58.5852 52.5614H58.6143V52.853H56.4889V52.5614H56.518C56.9838 52.5614 57.0421 52.5031 57.0421 51.8324V48.5958C57.0421 47.9251 56.9838 47.8668 56.518 47.8668H56.4889V47.5752Z" fill="white"/>
<path id="Vector_6" fill-rule="evenodd" clip-rule="evenodd" d="M63.1273 51.1618V51.1909C63.1273 51.745 63.1855 52.0366 63.3893 52.2698C63.564 52.474 63.8552 52.5906 64.2337 52.5906C64.9034 52.5906 65.311 52.2115 65.311 51.6283C65.311 51.3659 65.2528 51.1618 65.0781 50.9868C64.9325 50.8702 64.7578 50.7827 64.3211 50.6369C63.6223 50.4036 63.5349 50.3745 63.302 50.2287C62.8653 49.9954 62.6032 49.5289 62.6032 48.9748C62.6032 48.0417 63.2729 47.4585 64.4084 47.4585C64.9325 47.4585 65.4857 47.5752 65.9515 47.7793V49.0332H65.4857V49.004C65.4857 48.5958 65.4275 48.3333 65.311 48.1584C65.1363 47.9543 64.7869 47.8085 64.4375 47.8085C63.8261 47.8085 63.4767 48.1001 63.4767 48.6249C63.4767 49.0332 63.6805 49.2664 64.2337 49.4414C64.8743 49.6747 65.0198 49.7038 65.311 49.8496C65.9515 50.1412 66.2427 50.5786 66.2427 51.2493C66.2427 52.2698 65.5148 52.9405 64.3793 52.9405C64.0008 52.9405 63.5349 52.853 63.1273 52.7072C62.9817 52.6781 62.8944 52.6197 62.6906 52.5323V51.1618H63.1273Z" fill="white"/>
<path id="Vector_7" fill-rule="evenodd" clip-rule="evenodd" d="M72.1532 52.9697C71.4253 52.9697 70.843 52.7655 70.4936 52.4156C70.1442 52.0366 69.9987 51.3951 69.9987 50.0537C69.9987 48.9748 70.1442 48.3333 70.4936 47.9834C70.8139 47.6627 71.4545 47.4585 72.1824 47.4585C72.7938 47.4585 73.4052 47.5752 73.842 47.8085V49.004H73.4052V48.9748C73.4052 48.1584 73.0267 47.7501 72.2988 47.7501C71.8912 47.7501 71.5418 47.8959 71.338 48.1584C71.2215 48.3333 71.1342 48.5374 71.1051 48.7416C71.0759 48.9748 71.0468 49.4705 71.0177 50.1412C71.0177 50.2287 71.0177 50.3162 71.0177 50.4036C71.0177 51.4825 71.1342 52.0074 71.4253 52.3282C71.6291 52.5323 71.9785 52.6781 72.3279 52.6781C72.6482 52.6781 72.9394 52.5614 73.1141 52.3573C73.3179 52.124 73.4052 51.8324 73.4052 51.2493H73.8711V52.6197C73.4343 52.8239 72.7356 52.9697 72.1532 52.9697Z" fill="white"/>
<path id="Vector_8" fill-rule="evenodd" clip-rule="evenodd" d="M77.8017 47.5752H79.9272V47.8668H79.8981C79.4613 47.8668 79.4031 47.9251 79.4031 48.5958V51.8324C79.4031 52.4739 79.4613 52.5614 79.8981 52.5614H79.9272V52.853H77.8017V52.5614H77.8309C78.2967 52.5614 78.3549 52.5031 78.3549 51.8324V48.5958C78.3549 47.9251 78.2967 47.8668 77.8309 47.8668H77.8017V47.5752Z" fill="white"/>
<path id="Vector_9" fill-rule="evenodd" clip-rule="evenodd" d="M84.0034 52.5614H84.0617C84.4984 52.5614 84.5857 52.5031 84.5857 52.1532V51.8033V48.5374C84.5857 48.2458 84.5857 48.1292 84.4984 48.0709C84.4402 47.9543 84.2655 47.9251 84.0034 47.9251V47.6335H85.4301L88.0797 51.8324V48.7416C88.0797 47.9834 88.0505 47.9543 87.5265 47.9251H87.4973V47.6335H89.0405V47.9251H89.0114C88.4873 47.9251 88.4582 47.9543 88.4582 48.7416V52.8822H87.4973L84.9351 48.8874V51.8033V52.124C84.9351 52.5031 84.9934 52.5323 85.5175 52.5614H85.5466V52.853H83.9743V52.5614H84.0034Z" fill="white"/>
<path id="Vector_10" fill-rule="evenodd" clip-rule="evenodd" d="M101.269 51.1618V51.1909C101.269 51.745 101.327 52.0366 101.531 52.2698C101.706 52.474 101.997 52.5906 102.376 52.5906C103.045 52.5906 103.453 52.2115 103.453 51.6283C103.453 51.3659 103.366 51.1618 103.22 50.9868C103.074 50.8702 102.9 50.7827 102.463 50.6369C101.764 50.4036 101.677 50.3745 101.444 50.2287C101.007 49.9954 100.745 49.5289 100.745 48.9748C100.745 48.0417 101.415 47.4585 102.55 47.4585C103.074 47.4585 103.628 47.5752 104.093 47.7793V49.0332H103.628V49.004C103.628 48.5958 103.569 48.3333 103.453 48.1584C103.278 47.9543 102.929 47.8085 102.579 47.8085C101.968 47.8085 101.619 48.1001 101.619 48.6249C101.619 49.0332 101.822 49.2664 102.376 49.4414C103.016 49.6747 103.162 49.7038 103.453 49.8496C104.093 50.1412 104.385 50.5786 104.385 51.2493C104.385 52.2698 103.657 52.9405 102.521 52.9405C102.143 52.9405 101.677 52.853 101.269 52.7072C101.124 52.6781 101.036 52.6197 100.832 52.5323V51.1618H101.269Z" fill="white"/>
</g>
<path id="Vector_11" fill-rule="evenodd" clip-rule="evenodd" d="M63.0108 32.2374H67.6985L65.1945 35.9989V36.4363L63.0108 32.2374Z" fill="#0090D3"/>
<path id="Vector_12" d="M76.5788 32.6456H75.6471V33.4038H76.5788V32.6456Z" fill="#005497"/>
<path id="Vector_13" d="M10.8642 35.824V26.2889L11.068 26.2306L11.2427 26.2014C11.4756 26.1722 11.7086 26.1431 11.9415 26.1431C15.1151 26.0556 17.0077 27.9218 16.9494 31.1002C16.8621 34.541 14.6201 36.3488 11.2136 35.8823L10.9807 35.8531L10.8642 35.824ZM6.84619 37.8068H13.0188C16.8621 37.8068 19.3952 35.7073 19.9484 32.3249C20.6763 28.0384 18.4634 25.0059 14.2999 24.4227C13.9214 24.3644 13.5137 24.3352 13.1061 24.3352H6.99177C7.07912 24.4227 7.10823 24.4518 7.16647 24.5393C7.63232 25.0642 7.80702 25.4724 7.86525 26.0556C7.86525 26.1431 7.86525 26.2306 7.86525 26.2889L7.83613 35.7948C7.83613 35.8823 7.83613 35.9406 7.83613 36.0281C7.74879 36.6696 7.54497 37.0778 7.02089 37.5444C6.99177 37.6902 6.90442 37.7485 6.84619 37.8068Z" fill="white"/>
<path id="Vector_14" d="M24.4613 31.246C24.4905 31.1002 24.5487 30.9252 24.5778 30.7794C25.0728 29.2048 26.8197 28.6216 28.0135 29.5839C28.5085 29.9921 28.7996 30.6045 28.7996 31.246H24.4613ZM31.6821 32.9955C31.6821 32.8497 31.6821 32.7039 31.6821 32.5581C31.5947 29.0299 29.3237 27.0762 25.7424 27.7177C23.6752 28.0676 22.1612 29.4672 21.6662 31.4792C21.4915 32.1207 21.4624 32.7914 21.5789 33.4329C22.0156 36.1447 24.1119 37.8068 27.5185 37.8068C28.2464 37.8068 29.0034 37.7193 29.7896 37.5152L29.9642 37.4861L30.1389 37.4277L31.653 34.92C31.2745 35.1533 30.9542 35.2991 30.5466 35.4741C29.4984 35.8531 28.6249 36.0281 27.9844 36.0281C26.4121 35.9989 25.3348 35.3283 24.7525 34.0744C24.6069 33.7537 24.4905 33.4038 24.4613 33.0538H31.6821V32.9955Z" fill="white"/>
<path id="Vector_15" d="M32.7303 34.9492L32.9632 35.0658C33.4582 35.4157 33.8367 35.5615 34.2443 35.7073C35.4672 36.1447 36.3989 36.2614 36.9521 36.203C38.0002 36.0864 38.3788 35.7073 38.437 35.1825C38.4661 34.6868 38.1167 34.3077 37.0685 33.9578L36.2533 33.6662L35.4672 33.4038L35.2342 33.3163C34.7975 33.1413 34.3899 32.908 34.0114 32.5581C32.672 31.3918 32.905 29.2631 34.7101 28.33C35.7583 27.776 37.2141 27.601 39.2813 27.9801L39.689 28.0676L39.8054 28.0968V30.0504C39.689 29.9921 39.6016 29.963 39.5143 29.9046C38.6117 29.4672 37.8838 29.2631 37.185 29.3214C36.8356 29.3214 36.6027 29.3506 36.3406 29.4381C35.7874 29.613 35.5836 30.1671 35.8748 30.6045C36.0204 30.8086 36.1951 30.9544 36.5736 31.1293C36.69 31.1876 36.8065 31.2168 36.923 31.246L37.3597 31.3918L37.6509 31.4792L38.6117 31.7708L38.9902 31.8875C39.2813 32.0041 39.5725 32.1207 39.8637 32.3249C41.3777 33.3163 41.5815 35.4449 39.9801 36.8737C39.0775 37.6902 37.8838 37.9818 35.8166 37.7776C35.6419 37.7485 35.438 37.7193 35.2633 37.6902L34.0987 37.4569L34.0114 37.4277L33.662 37.3694L32.6429 34.8034L32.7303 34.9492Z" fill="white"/>
<path id="Vector_16" d="M51.0733 32.7039C51.0442 32.529 51.0442 32.354 51.0733 32.2082C51.1898 30.2254 52.4417 29.1173 53.9849 29.234C55.0622 29.3214 55.8774 29.8755 56.4015 31.1293C56.5762 31.5667 56.6927 32.0916 56.6927 32.7039C56.78 35.3283 55.1786 36.6404 53.3152 36.0864C52.0924 35.7365 51.1315 34.4826 51.0733 32.7039ZM48.2491 32.7039C48.2491 33.083 48.2782 33.4621 48.3655 33.812C48.9478 36.6988 51.4518 38.3608 54.8875 37.8068C55.4407 37.7193 55.9357 37.5444 56.4015 37.3403C58.4396 36.378 59.4878 34.6576 59.4878 32.6748C59.5169 29.4381 56.8091 27.1053 52.9949 27.6302C51.1024 27.8926 49.6175 28.9424 48.8314 30.4587C48.4529 31.1585 48.2782 31.9458 48.2491 32.7039Z" fill="white"/>
<path id="Vector_17" d="M60.6525 40.1104C60.8854 40.3437 61.1474 40.4603 61.4968 40.5186C62.2538 40.6353 62.807 40.3437 63.302 39.3814C63.3894 39.2356 63.4185 39.0898 63.5058 38.944L64.059 37.5735L63.8843 37.1945L63.7096 36.8154L63.302 35.8531L60.8563 30.4003C60.1575 28.8257 59.9537 28.5341 59.1093 28.0676C59.8081 28.1842 60.536 28.1842 61.2639 28.0384C61.788 27.951 62.2829 27.8052 62.7488 27.6011L65.5439 34.2494L67.3491 29.8755C67.7276 28.9132 67.6985 28.6508 67.2618 28.1842L67.1162 28.0093L67.0871 27.9801H70.7848L65.4275 39.4981C64.3793 41.7433 63.1273 42.5306 60.5651 42.414C59.9828 42.3848 59.4005 42.2973 58.8181 42.0932L60.6525 40.1104Z" fill="white"/>
<path id="Vector_18" d="M73.0558 28.0384C73.5508 27.9218 74.0458 27.8635 74.5408 27.8343C77.8309 27.6302 78.9081 28.5925 78.9081 30.8669V34.366C78.9081 35.5907 79.2284 35.9115 80.4222 35.8823C80.5095 35.8823 80.5969 35.8531 80.6842 35.8531L79.4031 37.6319C78.9955 37.7485 78.5879 37.7776 78.1802 37.7193C77.2194 37.6027 76.608 37.1653 76.3168 36.4946C76.1713 36.1739 76.1421 35.9698 76.1421 35.095V32.7914L75.9092 32.8789L75.7345 32.9372L75.7054 32.9664L75.0066 33.1413C74.9193 33.1705 74.8319 33.1996 74.7155 33.2288C73.2014 33.6662 72.7647 34.1619 72.9394 34.9784C73.1141 35.7948 74.0458 36.3488 75.7054 35.9406C75.7927 35.9115 75.9092 35.8823 75.9966 35.8531L74.8028 37.6027C74.6281 37.661 74.4243 37.7193 74.2205 37.7485C72.7356 37.9818 71.4545 37.4569 70.7848 36.5238C69.5037 34.7159 70.2316 32.8789 72.6191 32.1499C72.852 32.0624 73.1141 32.0333 73.3761 31.9749L73.4635 31.9458L74.5408 31.7125L74.7737 31.6542L75.3269 31.5376C75.9966 31.3626 76.2877 30.8961 76.0839 30.3129C75.9674 29.963 75.6472 29.7588 74.9484 29.6714C74.5699 29.613 73.9876 29.6422 73.1723 29.8463C72.6191 29.963 72.0368 30.1671 71.4836 30.4295L73.0558 28.0384Z" fill="white"/>
<path id="Vector_19" d="M82.9844 28.2134C83.5376 28.1259 84.0616 27.9801 84.5857 27.8052V34.366C84.5857 35.8823 85.401 36.5821 87.2935 36.203C88.2252 35.9989 88.6037 35.4449 88.6037 34.1619V30.2545C88.6037 29.1465 88.3999 28.6799 87.7885 28.2717C88.1379 28.3009 88.429 28.3009 88.7784 28.3009C89.6228 28.2717 90.4963 28.1259 91.3115 27.8052V35.8531V36.1739L91.3406 36.3488C91.3698 36.8154 91.5153 37.1945 91.8938 37.5444C91.9812 37.6319 92.0685 37.6902 92.1268 37.7485H88.5455V36.7862C88.2252 37.2236 87.7885 37.5735 86.9732 37.8651C86.4783 38.0401 85.896 38.1276 85.2263 38.0984C84.9934 38.0984 84.7895 38.0692 84.5566 38.0109C82.635 37.661 81.7906 36.6113 81.7906 34.7159V30.5461C81.7906 29.059 81.645 28.7091 80.9462 28.2426C81.6741 28.3592 82.3438 28.33 82.9844 28.2134Z" fill="white"/>
<path id="Vector_20" d="M97.3094 32.9664L94.951 29.7297C94.6016 29.2923 94.2231 28.8841 93.7864 28.5341C93.6699 28.4467 93.5243 28.3592 93.4079 28.2717H97.3385L99.1437 30.8669L100.163 29.6422C100.192 29.613 100.221 29.5547 100.25 29.5256C100.629 28.9715 100.629 28.7674 100.308 28.4467L100.192 28.33L100.163 28.3009H104.093L100.337 32.5581L102.929 36.1447C103.598 37.0487 103.977 37.4277 104.676 37.8068H100.745L98.5323 34.6576L97.0182 36.4072C96.465 37.0487 96.465 37.4277 96.8727 37.7193L96.96 37.7485L96.9891 37.7776H93.0876L97.3094 32.9664Z" fill="white"/>
</g>
</g>
</g>
<path id="Vector_21" fill-rule="evenodd" clip-rule="evenodd" d="M91.8938 52.5614H92.0394C92.185 52.5614 92.2723 52.5323 92.3306 52.4739C92.3597 52.4448 92.3888 52.4156 92.447 52.3573C92.5344 52.2115 92.5344 52.2115 92.6508 51.8616L93.7864 48.4791C93.8446 48.275 93.9028 48.0709 93.9028 48.0417C93.9028 47.9251 93.8446 47.8959 93.6117 47.8959H93.3205V47.6043H95.0383L96.4359 51.57C96.5524 51.8908 96.698 52.2115 96.7853 52.3865C96.8435 52.5031 96.9891 52.5614 97.1056 52.5614H97.2803V52.853H95.1257V52.5614H95.3004C95.4751 52.5614 95.5624 52.5031 95.5624 52.4156C95.5624 52.3865 95.5624 52.3281 95.5333 52.2698L95.5042 52.1532L95.1839 51.1618C95.1257 50.9868 95.0966 50.9577 94.8054 50.9577H93.6117C93.437 50.9577 93.4079 50.9577 93.3787 50.9868C93.3205 51.016 93.3205 51.0451 93.2623 51.2493L93.0002 52.0949C92.9711 52.2115 92.942 52.3281 92.942 52.4156C92.942 52.5614 93.0294 52.6197 93.2332 52.6197H93.3787V52.9113H91.9229V52.5614H91.8938ZM93.699 50.4036C93.699 50.4619 93.6699 50.4911 93.6699 50.5203C93.6699 50.5494 93.6699 50.5494 93.699 50.5786C93.699 50.5786 93.7281 50.6077 93.7864 50.6077H93.8737H94.9219H95.0383C95.0966 50.6077 95.1257 50.5786 95.1257 50.5203C95.1257 50.4911 95.1257 50.4619 95.0966 50.4036L94.3978 48.275L93.699 50.4036Z" fill="white"/>
</g>
</g>
</svg>
