<svg width="131" height="16" viewBox="0 0 131 16" fill="none" xmlns="http://www.w3.org/2000/svg">
<g id="Logo">
<path id="Subtract" fill-rule="evenodd" clip-rule="evenodd" d="M8.55066 15.4262C8.44349 15.7043 8.17619 15.8877 7.87815 15.8877H6.75091C6.45286 15.8877 6.18556 15.7043 6.0784 15.4262L0.517017 0.993525C0.335088 0.521391 0.683556 0.0136719 1.18953 0.0136719H3.25608C3.55809 0.0136719 3.82806 0.201963 3.93241 0.485367L6.65348 7.87573C6.88574 8.50653 7.77958 8.50434 8.0096 7.87271C8.31391 7.03713 8.62053 6.19775 8.92697 5.35891C9.52448 3.72325 10.1213 2.08963 10.6986 0.49009C10.8018 0.204227 11.0729 0.0136719 11.3769 0.0136719H13.4395C13.9455 0.0136719 14.294 0.521392 14.112 0.993526L8.55066 15.4262ZM17.8522 0.0136719C18.2502 0.0136719 18.5729 0.336345 18.5729 0.734383V15.167C18.5729 15.5651 18.2502 15.8877 17.8522 15.8877H15.9071C15.5091 15.8877 15.1864 15.5651 15.1864 15.167V0.734384C15.1864 0.336346 15.5091 0.0136719 15.9071 0.0136719H17.8522ZM32.0245 0.734384C32.0245 0.336345 31.7018 0.0136719 31.3038 0.0136719H20.1518C19.7537 0.0136719 19.4311 0.336346 19.4311 0.734384V2.10796C19.4311 2.506 19.7537 2.82867 20.1518 2.82867H23.3033C23.7013 2.82867 24.024 3.15135 24.024 3.54939V15.167C24.024 15.5651 24.3466 15.8877 24.7447 15.8877H26.7109C27.1089 15.8877 27.4316 15.5651 27.4316 15.167V3.54938C27.4316 3.15135 27.7543 2.82867 28.1523 2.82867H31.3038C31.7018 2.82867 32.0245 2.506 32.0245 2.10796V0.734384ZM36.8271 0.0136719C37.1194 0.0136719 37.3827 0.190215 37.4938 0.460599L43.4208 14.8932C43.6156 15.3675 43.2668 15.8877 42.7541 15.8877H40.6661C40.3767 15.8877 40.1154 15.7146 40.0025 15.4481L38.8977 12.8399L36.8758 7.32141C36.6448 6.69104 35.7533 6.69104 35.5223 7.32141L33.5005 12.8399L32.435 15.4403C32.3241 15.7109 32.0606 15.8877 31.7681 15.8877H29.6665C29.1534 15.8877 28.8047 15.3669 29.0001 14.8925L34.9464 0.459839C35.0576 0.189858 35.3208 0.0136719 35.6128 0.0136719H36.8271ZM63.3297 0.734383C63.3297 0.336345 63.007 0.0136719 62.609 0.0136719H60.1063C59.837 0.0136719 59.5903 0.163588 59.4666 0.402706C58.3475 2.56607 57.1908 4.83527 56.0468 7.0795L56.0468 7.07961C55.6307 7.89592 55.2162 8.70893 54.8059 9.51233C54.5387 10.0356 53.7913 10.0356 53.5236 9.51248L48.8628 0.406024C48.7396 0.165189 48.4918 0.0136719 48.2213 0.0136719H45.7423C45.3442 0.0136719 45.0216 0.336346 45.0216 0.734384V15.167C45.0216 15.5651 45.3442 15.8877 45.7423 15.8877H47.6873C48.0854 15.8877 48.408 15.5651 48.408 15.167V9.60938C48.408 8.85241 49.4257 8.60728 49.7704 9.28122L52.9483 15.4952C53.0716 15.7361 53.3194 15.8877 53.59 15.8877H54.7612C55.0319 15.8877 55.2797 15.7361 55.4029 15.4952L58.5808 9.28122C58.9255 8.60728 59.9432 8.85241 59.9432 9.60938V15.167C59.9432 15.5651 60.2659 15.8877 60.6639 15.8877H62.609C63.007 15.8877 63.3297 15.5651 63.3297 15.167V0.734383ZM68.3822 0.0136719C68.7802 0.0136719 69.1029 0.336345 69.1029 0.734383V15.167C69.1029 15.5651 68.7802 15.8877 68.3822 15.8877H66.4371C66.0391 15.8877 65.7164 15.5651 65.7164 15.167V0.734384C65.7164 0.336346 66.0391 0.0136719 66.4371 0.0136719H68.3822ZM85.433 0.734383C85.433 0.336345 85.1103 0.0136719 84.7123 0.0136719H82.7461C82.348 0.0136719 82.0254 0.336346 82.0254 0.734384V8.09363C82.0254 8.80446 81.1053 9.08608 80.7074 8.49704L75.1916 0.330977C75.0576 0.132572 74.8338 0.0136719 74.5944 0.0136719H72.0999C71.7018 0.0136719 71.3791 0.336346 71.3791 0.734384V15.167C71.3791 15.5651 71.7018 15.8877 72.0999 15.8877H74.0661C74.4641 15.8877 74.7868 15.5651 74.7868 15.167V7.83086C74.7868 7.11987 75.7072 6.83837 76.1049 7.42772L81.5994 15.5702C81.7334 15.7687 81.9573 15.8877 82.1968 15.8877H84.7123C85.1103 15.8877 85.433 15.5651 85.433 15.167V0.734383ZM94.4296 0.0136719C94.7219 0.0136719 94.9853 0.190213 95.0963 0.460597L97.2088 5.60451C96.5763 6.21451 96.1861 7.06869 96.1861 8.01161C96.1861 9.9544 97.681 11.4601 99.5618 11.4601C99.579 11.4601 99.5962 11.4599 99.6133 11.4597L101.023 14.8932C101.218 15.3675 100.869 15.8877 100.357 15.8877H98.2687C97.9793 15.8877 97.718 15.7146 97.6051 15.4481L96.5002 12.8399L94.4783 7.3214C94.2474 6.69104 93.3558 6.69104 93.1249 7.3214L91.103 12.8399L90.0376 15.4403C89.9267 15.7109 89.6632 15.8877 89.3707 15.8877H87.2691C86.756 15.8877 86.4072 15.3669 86.6027 14.8925L92.5489 0.459839C92.6602 0.189858 92.9233 0.0136719 93.2153 0.0136719H94.4296Z" fill="black"/>
<path id="." d="M102.157 8.02041C102.157 6.64164 101.04 5.51685 99.599 5.51685C98.194 5.51685 97.0771 6.64164 97.0771 8.02041C97.0771 9.47176 98.194 10.5965 99.599 10.5965C101.04 10.5965 102.157 9.47176 102.157 8.02041Z" fill="#2DABE2"/>
<g id="web">
<path d="M113.075 4.37097L111.341 9.48242L109.815 4.97842L109.608 4.37097H108.511L108.319 4.97842L106.793 9.48242L105.059 4.37097H103.518L106.319 11.69H107.252L109.06 6.94892L110.882 11.69H111.815L114.601 4.37097H113.075Z" fill="#2DABE2"/>
<path d="M122.091 8.04529C122.091 7.80824 122.076 7.57118 122.032 7.33413C121.721 5.49697 120.684 4.23763 118.417 4.23763C116.15 4.23763 114.743 5.86737 114.743 8.04529C114.743 10.2232 116.195 11.8381 118.565 11.8381C120.21 11.8381 121.01 11.2455 121.499 10.5788L120.447 9.63058C120.032 10.2232 119.261 10.5936 118.565 10.5936C117.617 10.5936 116.328 9.94171 116.328 8.59347H122.091V8.04529ZM116.357 7.33413C116.357 6.25258 117.291 5.49697 118.417 5.49697C119.543 5.49697 120.491 6.14887 120.491 7.33413H116.357Z" fill="#2DABE2"/>
<path d="M126.809 4.23763C126.097 4.23763 125.194 4.54876 124.705 4.94879V0.578125H123.179V11.69H124.705V11.1418C125.283 11.5714 126.097 11.8381 126.809 11.8381C128.912 11.8381 130.468 10.2232 130.468 8.04529C130.468 5.86737 128.912 4.23763 126.809 4.23763ZM126.66 10.5936C125.831 10.5936 125.105 10.2084 124.705 9.42316C124.497 9.02313 124.379 8.54903 124.379 8.04529C124.379 7.54155 124.497 7.06745 124.705 6.6526C125.105 5.86737 125.831 5.49697 126.66 5.49697C127.92 5.49697 128.942 6.54889 128.942 8.04529C128.942 9.52687 127.92 10.5936 126.66 10.5936Z" fill="#2DABE2"/>
</g>
</g>
</svg>
