<svg width="480" height="624" viewBox="0 0 480 624" fill="none" xmlns="http://www.w3.org/2000/svg">
<path opacity="0.05" d="M413.175 103.89C415.129 75.9528 426.789 70.776 416.909 30.9716C411.456 8.56017 468.003 -12.2594 474.588 8.87435C482.983 38.0032 480.884 63.5299 473.248 93.5022C466.897 118.68 411.452 123.588 413.175 103.89ZM328.884 265.113C281.705 416.121 182.87 588.864 100.233 614.156C1.21564 644.546 -69.8925 595.846 -47.5853 514.069C-35.6545 471.017 -3.72291 455.065 27.2971 421.872C47.1891 400.718 61.2761 438.092 35.4248 466.741C-5.98591 512.171 -30.5259 534.452 22.9565 563.408C77.1761 592.562 134.142 552.485 170.282 495.76C246.921 376.364 266.45 294.633 303.968 161.987C313.428 128.155 362.891 110.181 370.027 142.53C380.511 190.402 401.224 180.931 394.234 205.543C379.411 260.864 349.549 198.313 328.884 265.113Z" fill="#005A9B"/>
</svg>
